PathFileType	4	(x/y/z)	A01_PREF_T0017.trc
DataRate	CameraRate	NumFrames	NumMarkers	Units	OrigDataRate	OrigDataStartFrame	OrigNumFrames
240	240	4	48	mm	240	181	289
Frame#	Time	TOP_HEAD			R_AC			L_AC			R_ASIS			L_ASIS			R_PSIS			L_PSIS			SACRAL			L_IC			R_IC			L_GT			R_GT			R_LAT_KNEE			R_MED_KNEE			L_MED_KNEE			L_LAT_KNEE			R_TOE			L_TOE			R_1ST_MET			L_1ST_MET			L_5TH_MET			R_5TH_MET			R_LAT_ANK			R_MED_ANK			L_MED_ANK			L_LAT_ANK			L_HEEL_SUP			R_HEEL_SUP			L_HEEL_LAT			R_HEEL_LAT			L_HEEL_MED			R_HEEL_MED			R_SHANK_PROX_POST			R_SHANK_PROX_ANT			R_SHANK_DIST_ANT			R_SHANK_DIST_POST			R_THIGH_PROX_POST			R_THIGH_PROX_ANT			R_THIGH_DIST_ANT			R_THIGH_DIST_POST			L_SHANK_PROX_ANT			L_SHANK_PROX_POST			L_SHANK_DIST_POST			L_SHANK_DIST_ANT			L_THIGH_PROX_ANT			L_THIGH_PROX_POST			L_THIGH_DIST_POST			L_THIGH_DIST_ANT			
		X1	Y1	Z1	X2	Y2	Z2	X3	Y3	Z3	X4	Y4	Z4	X5	Y5	Z5	X6	Y6	Z6	X7	Y7	Z7	X8	Y8	Z8	X9	Y9	Z9	X10	Y10	Z10	X11	Y11	Z11	X12	Y12	Z12	X13	Y13	Z13	X14	Y14	Z14	X15	Y15	Z15	X16	Y16	Z16	X17	Y17	Z17	X18	Y18	Z18	X19	Y19	Z19	X20	Y20	Z20	X21	Y21	Z21	X22	Y22	Z22	X23	Y23	Z23	X24	Y24	Z24	X25	Y25	Z25	X26	Y26	Z26	X27	Y27	Z27	X28	Y28	Z28	X29	Y29	Z29	X30	Y30	Z30	X31	Y31	Z31	X32	Y32	Z32	X33	Y33	Z33	X34	Y34	Z34	X35	Y35	Z35	X36	Y36	Z36	X37	Y37	Z37	X38	Y38	Z38	X39	Y39	Z39	X40	Y40	Z40	X41	Y41	Z41	X42	Y42	Z42	X43	Y43	Z43	X44	Y44	Z44	X45	Y45	Z45	X46	Y46	Z46	X47	Y47	Z47	X48	Y48	Z48	

181	0.7526	495.61	1714.2	349.68	248.1	1510	567.58	258.64	1532.8	107.74	249.98	1070.7	524.29	243.5	991.84	175.63	30.579	1062.5	404.64	39.188	1065.2	271.46	18.475	1034.4	337.2	227.64	1124.7	138.6	210.06	1152.2	541.38	172.93	916.98	136.23	204.43	957.48	567.02	337.34	566.84	490.07	360.99	577.22	359.97	167.19	500.29	337.51	143.6	525.76	183.77	592.25	84.277	377.83	-127.97	65.865	254.6	508.51	60.406	334.33	-194.54	108.49	315.58	-228.34	132.26	192.99	487.08	47.875	468.59	363.01	102.92	449.33	367.42	113.08	346.83	-204.88	260.78	304.77	-237.5	280.08	242.05	-325.3	312.31	293.75	264.83	64.602	393.11	-346.04	291.01	262.37	275.4	41.841	427.54	-336.08	279.28	324.97	276.69	38.464	367.36	270.97	380.09	493.01	342.42	378.91	507.73	353.24	306.24	488.72	297.73	301.97	480.28	214.13	807.35	544.7	273.04	848.63	551.02	306.71	764.77	537.58	250.16	726.39	528.46	109.82	438.2	196.85	73.873	480.31	189.94	22.097	445.48	202.6	62.175	408.73	207.08	220.84	770.36	171.6	152.31	782.26	153.97	156.63	706.28	162.86	219.21	696.54	178.37
182	0.75679	501.21	1714.8	350.06	254.21	1510.6	567.93	264.04	1533.4	108.17	255.48	1070.7	525.33	249.54	992.85	176.39	36.227	1062.7	405.22	44.802	1065.6	272.1	24.248	1034.6	337.72	233.27	1125.5	139.07	215.55	1152.7	541.99	179.38	917.77	136.73	209.67	957.35	567.67	341.63	566.66	490.58	365.87	577.16	360.42	178.21	499.69	336.69	153.46	526.91	183.46	592.79	82.867	377.86	-121.84	67.932	251.88	508.89	59.776	334.27	-187.34	111.1	313.89	-221.98	136.61	191.95	487.34	47.393	468.79	363.63	102.95	449.17	368.07	112.98	346.69	-196.27	263.73	304.78	-229.26	283.85	242.53	-315.63	316.96	295.41	265.17	65.012	393.12	-336.96	296.24	264.04	275.61	42.206	427.55	-326.6	283.76	326.4	276.96	38.857	367.38	274.02	380.56	493.21	345.47	378.8	507.93	355.75	306.08	488.77	300.22	302.25	480.32	218.9	807.35	545.02	278	848.37	551.82	311.39	764.38	538.43	254.72	726.28	528.89	119.04	439.49	195.98	83.406	481.97	189.77	31.439	447.45	202.52	71.223	410.33	206.27	228.59	771.32	171.66	159.94	782.69	154.12	164.93	706.75	162.78	227.58	697.47	178.25
183	0.76097	506.79	1715.5	350.41	260.3	1511.3	568.26	269.35	1534.1	108.58	260.99	1070.7	526.38	255.53	993.91	177.13	41.863	1062.9	405.84	50.387	1065.9	272.78	30	1034.8	338.28	238.83	1126.3	139.52	221.1	1153.2	542.64	185.78	918.61	137.2	214.92	957.19	568.3	345.87	566.47	491.06	370.58	577.08	360.84	189.2	499.17	335.84	163.27	528.18	183.14	593.3	81.578	377.88	-115.34	70.131	249	509.24	59.233	334.19	-179.78	113.62	312.08	-215.32	140.9	190.81	487.57	46.991	468.97	364.21	102.99	448.99	368.68	112.89	346.53	-187.48	266.52	304.73	-220.83	287.48	242.99	-305.87	321.28	297.06	265.49	65.414	393.12	-327.76	301.12	265.71	275.81	42.566	427.55	-316.97	287.88	327.82	277.21	39.241	367.39	276.98	381.02	493.38	348.43	378.71	508.11	358.17	305.94	488.8	302.64	302.53	480.32	223.64	807.37	545.34	282.93	848.11	552.59	316.03	763.99	539.24	259.24	726.17	529.31	128.28	440.9	195.08	92.934	483.73	189.59	40.812	449.46	202.45	80.317	412.01	205.44	236.27	772.35	171.69	167.51	783.2	154.25	173.18	707.29	162.68	235.88	698.48	178.09
184	0.76515	512.35	1716.1	350.72	266.36	1512	568.58	274.59	1534.7	108.94	266.53	1070.7	527.4	261.48	995.01	177.84	47.489	1063.1	406.49	55.944	1066.2	273.5	35.731	1035	338.89	244.33	1127.1	139.96	226.71	1153.7	543.33	192.11	919.51	137.65	220.17	957.03	568.93	350.06	566.3	491.52	375.12	576.98	361.23	200.18	498.74	334.95	173.04	529.59	182.82	593.78	80.397	377.89	-108.47	72.43	245.97	509.56	58.769	334.11	-171.88	116.06	310.16	-208.37	145.08	189.59	487.77	46.659	469.13	364.77	103.05	448.81	369.25	112.82	346.35	-178.5	269.14	304.62	-212.24	290.94	243.4	-296.04	325.23	298.69	265.79	65.81	393.12	-318.46	305.62	267.37	276.01	42.924	427.55	-307.21	291.63	329.21	277.45	39.618	367.41	279.86	381.48	493.51	351.31	378.62	508.26	360.52	305.81	488.8	304.99	302.82	480.28	228.35	807.41	545.64	287.85	847.88	553.31	320.64	763.63	540.01	263.73	726.09	529.71	137.55	442.41	194.16	102.46	485.55	189.41	50.218	451.5	202.36	89.46	413.76	204.58	243.91	773.45	171.7	175.04	783.77	154.37	181.36	707.9	162.57	244.13	699.55	177.9
